# xmcd
#
# Track frame offsets: 
#        183
#        11533
#        24175
#        35290
#        48213
#        61030
#        74660
#        87435
#        101848
#        114010
#        127755
#        140960
#        151638
#        164280
#        174203
#        192705
#        211203
#        224008
#
# Disc length: 3217 seconds
#
# Revision: 1
# Processed by: cddbd v1.5.2PL0 Copyright (c) Steve Scherf et al.
# Submitted via: ExactAudioCopyFreeDBPlugin 1.0
#
DISCID=ef0c8f12
DTITLE=Django Reinhardt - Django CD 1
DYEAR=1991
DGENRE=Jazz
TTITLE0=Tiger rag
TTITLE1=Lady be good
TTITLE2=I saw stars
TTITLE3=Sweet Sue, just you
TTITLE4=Blue drag
TTITLE5=Swanee river
TTITLE6=Avalon
TTITLE7=Clouds
TTITLE8=I've found a new baby
TTITLE9=Saint Louis blues
TTITLE10=Chasing shadows
TTITLE11=Some of these days
TTITLE12=Honeysuckle rose
TTITLE13=Belleville
TTITLE14=Uptown blues
TTITLE15=Moten swing
TTITLE16=Ride, red, ride
TTITLE17=Blues riff
EXTD=YEAR: 1991
EXTT0=
EXTT1=
EXTT2=
EXTT3=
EXTT4=
EXTT5=
EXTT6=
EXTT7=
EXTT8=
EXTT9=
EXTT10=
EXTT11=
EXTT12=
EXTT13=
EXTT14=
EXTT15=
EXTT16=
EXTT17=
PLAYORDER=
